<?xml version="1.0" encoding="UTF-8"?>
<svg xmlns="http://www.w3.org/2000/svg" xmlns:xlink="http://www.w3.org/1999/xlink" width="40px" height="40px" viewBox="0 0 40 40" version="1.1">
<g id="surface1">
<path style=" stroke:none;fill-rule:evenodd;fill:rgb(0%,0%,0%);fill-opacity:1;" d="M 30.964844 8.664062 C 31.949219 9.671875 31.964844 11.296875 31.011719 12.277344 L 30.492188 12.808594 L 34.652344 17 L 24.128906 27.386719 L 20.078125 23.085938 L 4.277344 39.269531 C 3.320312 40.25 1.730469 40.230469 0.75 39.226562 C -0.230469 38.21875 -0.25 36.597656 0.707031 35.613281 L 16.5625 19.367188 L 13.390625 15.988281 L 23.339844 5.597656 L 26.898438 9.175781 L 27.445312 8.617188 C 28.398438 7.640625 29.984375 7.660156 30.964844 8.664062 Z M 22.90625 0.617188 C 23.6875 1.417969 23.703125 2.710938 22.941406 3.492188 L 11.335938 15.378906 C 10.574219 16.160156 9.3125 16.144531 8.53125 15.34375 C 7.75 14.542969 7.734375 13.25 8.496094 12.46875 L 20.101562 0.582031 C 20.863281 -0.199219 22.125 -0.183594 22.90625 0.617188 Z M 39.402344 17.515625 C 40.183594 18.316406 40.199219 19.609375 39.4375 20.390625 L 27.832031 32.28125 C 27.070312 33.0625 25.808594 33.046875 25.027344 32.246094 C 24.246094 31.445312 24.230469 30.152344 24.992188 29.371094 L 36.597656 17.484375 C 37.359375 16.699219 38.621094 16.714844 39.402344 17.515625 Z M 39.402344 17.515625 "/>
</g>
</svg>
